<svg xmlns="http://www.w3.org/2000/svg" width="81" height="81" viewBox="0 0 81 81" fill="none">
    <path d="M36.2662 8.46802C37.9558 5.01868 42.8724 5.01869 44.5619 8.46803L49.7584 19.0767C50.5841 20.7624 52.3479 21.7808 54.2206 21.653L66.0062 20.8489C69.8382 20.5874 72.2965 24.8453 70.1541 28.0332L63.5649 37.8378C62.5179 39.3957 62.5179 41.4324 63.5649 42.9904L70.1541 52.7949C72.2965 55.9828 69.8382 60.2407 66.0062 59.9792L54.2206 59.1751C52.3479 59.0474 50.5841 60.0657 49.7584 61.7514L44.5619 72.3601C42.8723 75.8094 37.9558 75.8094 36.2662 72.3601L31.0698 61.7514C30.2441 60.0657 28.4802 59.0474 26.6075 59.1751L14.8219 59.9792C10.9899 60.2407 8.53162 55.9828 10.674 52.7949L17.2632 42.9904C18.3102 41.4324 18.3102 39.3957 17.2632 37.8378L10.674 28.0332C8.53162 24.8453 10.9899 20.5874 14.8219 20.8489L26.6075 21.653C28.4802 21.7808 30.2441 20.7624 31.0698 19.0767L36.2662 8.46802Z" fill="#4BB7BF"/>
    <circle cx="56.5796" cy="12.7013" r="6.92788" fill="#EA4C89"/>
    <circle cx="23.0934" cy="69.2819" r="6.92788" fill="#4CEA5C"/>
  </svg>